# xmcd CD database file
#
# Track frame offsets:
#	150
#	14992
#	30007
#	44312
#	61662
#	77465
#	96190
#	113972
#	130165
#	147867
#	163510
#	179265
#	200462
#	221112
#	234082
#	249702
#	267432
#	284395
#	304127
#	322895
#
# Disc length: 4662 seconds
#
# Revision: 27
# Processed by: cddbd v1.5.2PL0 Copyright (c) Steve Scherf et al.
# Submitted via: CDex 2.23
#
DISCID=13123414
DTITLE=Santana - The Ultimate Collection [CD 2)
DYEAR=1998
DGENRE=Latin
TTITLE0=Revelations
TTITLE1=She's Not There
TTITLE2=I'll Be Waiting
TTITLE3=Flor D'Luna (Moonflower)
TTITLE4=One Chain (Don't make no prison)
TTITLE5=Well All Right
TTITLE6=Aqua Marine
TTITLE7=All I Ever Wanted
TTITLE8=You Know That I Love You
TTITLE9=Winning
TTITLE10=The Sensitive Kind
TTITLE11=I Love You Much Too Much
TTITLE12=Hold On
TTITLE13=Nowhere To Run
TTITLE14=Say It Again
TTITLE15=How Long
TTITLE16=Veracruz
TTITLE17=Gypsy Woman
TTITLE18=Havana Moon
TTITLE19=Blues For Salvador
EXTD=YEAR: 1998
EXTT0=
EXTT1=
EXTT2=
EXTT3=
EXTT4=
EXTT5=
EXTT6=
EXTT7=
EXTT8=
EXTT9=
EXTT10=
EXTT11=
EXTT12=
EXTT13=
EXTT14=
EXTT15=
EXTT16=
EXTT17=
EXTT18=
EXTT19=
PLAYORDER=
